<svg viewBox="0 0 67.37 67.35" xmlns="http://www.w3.org/2000/svg"><g fill="#0e0f1d"><path d="m33.13 29.54v-12.42h-.13-.37l-.42.06-.36.08-.41.1-.34.11-.39.14-.33.14-.38.25-.31.17-.35.21-.29.19-.33.25-.27.22-.31.28-.25.24-.28.31-.22.26-.25.33-.2.28c-.08.12-.15.24-.22.36l-.17.29c-.07.13-.13.26-.19.39s-.1.2-.14.3-.1.28-.15.42-.08.2-.11.31-.08.3-.12.46-.05.2-.07.3-.06.35-.08.52 0 .17 0 .26v.81s0 .53 0 .79v.25s0 .35.08.52 0 .19.07.29.07.3.11.45.07.21.11.31.09.27.14.41.09.21.14.31.11.25.17.37.12.21.18.31.13.23.2.34l.21.3.22.31.24.28.25.28.27.26.27.26.29.24.29.23.31.21.1.07a4.67 4.67 0 0 1 3.79-2.41z"/><path d="m32.25 51.21c-.34 0-.68 0-1-.06s-.79-.1-1.18-.15-.66-.08-1-.14-.78-.17-1.18-.25-.64-.14-1-.22-.78-.23-1.17-.36-.62-.18-.92-.29-.78-.31-1.16-.47-.58-.23-.86-.35-.78-.39-1.17-.59-.52-.26-.78-.4c-.42-.24-.83-.5-1.23-.76-.21-.13-.43-.25-.63-.39q-.91-.61-1.77-1.31a26.09 26.09 0 0 1 -9.66-20.34c0-.52 0-1 0-1.55 0-.16 0-.31 0-.47q0-.54.1-1.08c0-.17 0-.34.06-.5.05-.38.11-.75.18-1.12 0-.13 0-.25.07-.38q.14-.73.32-1.45l.09-.32c.1-.37.2-.74.32-1.1l.15-.47q.16-.49.34-1l.17-.45q.24-.59.5-1.16l.08-.18c.2-.43.42-.86.65-1.28l.22-.39q.25-.44.51-.87l.27-.43q.28-.43.57-.85l.24-.35q.41-.58.86-1.13l.18-.21q.37-.45.75-.87l.33-.36.68-.7.35-.34q.41-.39.84-.77l.22-.2q.54-.46 1.11-.89l.33-.24.85-.6.19-.14a33.66 33.66 0 0 0 13.93 64.07h.1v-16.08c-.27-.01-.56-.04-.85-.06z"/><path d="m27.43 31.66-.26-.25c-.18-.19-.36-.39-.53-.6l-.14-.18c-.16-.21-.31-.43-.46-.65l-.17-.28c-.1-.17-.2-.34-.29-.52l-.15-.33c-.08-.17-.15-.35-.22-.53l-.12-.32c-.06-.18-.11-.37-.16-.56s-.06-.23-.09-.35-.08-.42-.11-.64 0-.21 0-.31a9.14 9.14 0 0 1 -.06-1c0-.31 0-.61 0-.91 0-.1 0-.2 0-.29s.05-.4.09-.59.06-.23.08-.34.08-.35.13-.51.08-.24.12-.35.11-.31.17-.47.11-.23.16-.35.13-.29.21-.43l.2-.34c.08-.13.16-.27.24-.4l.23-.32.28-.37.26-.3.31-.34.29-.28.33-.3.32-.25.36-.27.34-.22.38-.23.36-.19.4-.2.38-.16.42-.16.4-.12.44-.11.42-.09.45-.07h.43.16v-16.18h-.58l-.79.06c-.29 0-.58.08-.87.13l-.75.14c-.29.06-.57.14-.85.22l-.71.2c-.28.09-.56.2-.84.31l-.66.26c-.28.12-.54.26-.81.39l-.61.31c-.27.15-.53.32-.79.48l-.56.35c-.26.18-.5.37-.75.56s-.34.26-.51.39-.47.43-.71.64-.31.28-.45.42-.44.48-.65.72-.28.3-.4.46-.4.52-.59.79-.24.32-.35.48-.35.57-.52.86-.21.33-.3.5-.3.61-.44.92-.17.35-.25.53-.24.64-.36 1-.14.36-.2.54-.18.68-.26 1c0 .19-.1.37-.14.55-.08.37-.12.75-.17 1.13 0 .17-.06.33-.07.5a16.61 16.61 0 0 0 .91 7.27 16.27 16.27 0 0 0 .64 1.52l.19.39c.22.43.45.86.71 1.27l.1.16c.29.45.6.89.93 1.31l.26.32q.43.52.9 1l.2.22c.37.37.77.73 1.18 1.06l.3.24q.52.41 1.06.77l.3.2q.67.42 1.38.79l.3.14q.6.29 1.22.53l.2.08-.04-.11z"/><path d="m28.74 34.21a4.67 4.67 0 0 1 .07-.74 17.78 17.78 0 0 1 -7.47-4.36c-.29-.28-.57-.58-.84-.88l-.07-.07c-.24-.28-.48-.57-.7-.86l-.13-.16c-.22-.29-.43-.59-.63-.9l-.11-.24c-.19-.3-.37-.62-.55-.93l-.12-.21c-.17-.32-.33-.65-.48-1l-.11-.22q-.27-.61-.5-1.25a17.56 17.56 0 0 1 -1-5.87c0-.54 0-1.07.08-1.6 0-.12 0-.23 0-.35.06-.51.13-1 .23-1.52l.06-.24q.14-.67.34-1.31l.09-.3q.23-.71.51-1.38l.14-.32c.18-.41.37-.81.58-1.2l.1-.19c.23-.43.49-.84.75-1.24l.22-.33c.27-.4.56-.78.86-1.15l.15-.17c.28-.33.57-.65.87-1l.28-.22q.51-.5 1.05-1l.27-.21q.49-.39 1-.75l.25-.17h.06l-.18.13c-.49.21-1 .42-1.44.66h-.06c-.48.24-.94.5-1.4.77l-.35.21c-.45.28-.9.56-1.34.86l-.14.1c-.4.28-.78.58-1.16.88l-.31.25c-.4.33-.8.68-1.18 1l-.19.27q-.5.48-1 1l-.24.23q-.53.58-1 1.2l-.19.24q-.42.54-.81 1.11l-.2.29q-.44.66-.84 1.34l-.17.3q-.34.61-.65 1.23l-.14.27q-.34.72-.64 1.47l-.13.35q-.26.68-.48 1.37l-.08.23c-.16.52-.3 1.05-.43 1.58l-.09.39c-.11.51-.21 1-.29 1.53v.15c-.08.56-.14 1.12-.19 1.69v.41c0 .58-.07 1.16-.07 1.74a25.08 25.08 0 0 0 9.34 19.55q.82.67 1.7 1.26c.2.13.41.25.61.38.39.25.78.5 1.18.73.25.14.5.25.75.38s.74.39 1.12.57.55.23.83.34.74.31 1.11.45.59.19.88.28.74.24 1.12.34.61.14.92.21.75.18 1.13.25.63.09.94.14.76.11 1.14.15.64 0 1 .06h.84v-11.33a4.69 4.69 0 0 1 -4.47-4.67z"/><path d="m39.94 35.69.26.25q.28.29.54.61l.12.15c.16.21.32.44.47.66l.16.28c.1.17.2.35.29.53l.15.33c.08.17.15.35.22.53l.12.35c.06.19.11.37.16.56s.06.23.09.35.08.42.11.64 0 .21 0 .31a9.14 9.14 0 0 1 .06 1v.91.3s-.05.39-.09.59-.06.23-.09.34-.08.34-.13.51-.08.24-.13.35-.11.31-.17.46-.11.24-.16.35-.13.29-.21.43-.13.23-.2.34-.15.27-.24.39l-.23.33-.27.36-.27.31-.3.33-.29.28-.33.3-.32.26-.35.27-.35.23-.38.23-.37.2-.4.19-.39.16-.42.15-.4.12-.44.11-.42.09-.45.07h-.43-.16v16.14c.27 0 .54 0 .81-.06s.5 0 .75-.06.72-.12 1.07-.19l.52-.09c.47-.11.93-.24 1.38-.39h.15a16.59 16.59 0 0 0 10.4-21.27 16.27 16.27 0 0 0 -.64-1.52l-.19-.38c-.22-.44-.46-.86-.71-1.28l-.09-.16c-.29-.45-.61-.89-.94-1.31l-.25-.31q-.44-.53-.91-1l-.19-.2c-.38-.38-.77-.73-1.18-1.07l-.29-.23q-.53-.41-1.08-.78l-.28-.19q-.67-.43-1.38-.79l-.29-.14q-.6-.29-1.23-.54l-.2-.08.09.08z"/><path d="m35 16.13 1 .06c.35 0 .69.08 1 .12l1 .13c.34.06.67.13 1 .2s.64.13 1 .21.65.18 1 .27.63.18.94.28.63.23.94.34.61.22.91.35.61.27.91.41.59.27.88.41.59.32.88.48.57.31.84.48.56.36.84.55.54.35.8.53.54.41.8.62.51.38.75.59.51.46.77.68.47.41.7.63.49.5.73.76.43.44.64.67.46.56.69.84.39.46.57.69.44.62.65.93.34.46.49.71.42.69.62 1 .28.45.4.68c.22.4.41.81.6 1.23.09.2.2.39.29.59q.41.93.76 1.9a26.06 26.06 0 0 1 1.49 8.71v1.55.47q0 .54-.1 1.08c0 .17 0 .33-.06.5-.05.38-.11.75-.18 1.13 0 .12 0 .25-.06.37q-.14.73-.32 1.45l-.08.3q-.15.57-.33 1.13l-.15.45q-.17.5-.35 1l-.16.42q-.25.61-.52 1.21l-.06.13c-.21.44-.43.87-.65 1.3l-.2.35q-.26.46-.53.91l-.25.4q-.29.45-.6.89l-.22.31q-.42.58-.87 1.15l-.14.16q-.39.47-.8.93l-.31.33-.71.73-.33.32q-.43.41-.88.8l-.19.17q-.54.46-1.12.9l-.31.23-.87.61-.19.13a33.66 33.66 0 0 0 -14.02-63.99h-.1v16.09z"/><path d="m34.24 29.59a4.68 4.68 0 0 1 3.86 4.16 17.79 17.79 0 0 1 9.65 6.47 17.49 17.49 0 0 1 1.39 2.16v.07a17.32 17.32 0 0 1 1.09 2.46 17.55 17.55 0 0 1 1 5.87c0 .54 0 1.07-.08 1.6v.36c-.06.51-.13 1-.23 1.5 0 .1 0 .2-.07.3q-.14.62-.31 1.22c0 .13-.07.26-.11.39q-.21.66-.48 1.31l-.2.45q-.22.49-.47 1l-.23.44c-.2.36-.42.72-.65 1.06l-.33.49q-.31.43-.64.85l-.47.56c-.2.23-.4.45-.61.67l-.44.44c-.3.29-.6.57-.92.84l-.46.36-.73.55-.46.32.17-.07c.48-.2.95-.41 1.41-.64h.08c.48-.24.95-.5 1.41-.77l.36-.21c.45-.28.9-.56 1.34-.86l.12-.09c.4-.29.8-.58 1.18-.89l.31-.25c.41-.34.8-.68 1.19-1l.17-.17q.51-.49 1-1l.26-.28q.53-.58 1-1.2l.18-.24q.42-.54.82-1.11l.2-.29q.44-.66.84-1.34l.17-.3q.34-.61.65-1.24l.14-.28q.34-.72.64-1.47l.13-.34q.26-.68.48-1.37l.08-.24c.16-.52.3-1.05.43-1.59l.09-.38c.11-.51.21-1 .29-1.53v-.15c.08-.56.14-1.12.19-1.69 0-.14 0-.27 0-.41 0-.58.07-1.16.07-1.74a25.07 25.07 0 0 0 -1.43-8.38q-.33-.93-.73-1.83c-.08-.19-.18-.37-.27-.56-.19-.4-.38-.8-.59-1.19-.12-.22-.25-.43-.38-.64s-.39-.68-.6-1-.31-.44-.46-.67-.41-.61-.64-.9-.35-.43-.53-.65-.44-.56-.68-.82-.39-.42-.59-.62-.47-.51-.72-.75-.43-.39-.65-.59-.5-.46-.76-.68-.46-.36-.7-.54-.53-.42-.8-.61-.49-.33-.74-.49-.55-.37-.84-.55-.52-.29-.78-.44-.58-.33-.87-.48-.54-.26-.82-.38-.6-.28-.91-.41l-.85-.32c-.31-.12-.62-.24-.94-.34l-.87-.26c-.32-.09-.64-.19-1-.27l-.9-.19c-.33-.07-.66-.14-1-.2l-.92-.13c-.34 0-.67-.09-1-.12l-.77-.2h-.72z"/><path d="m34.24 38.83v11.41h.11.37l.42-.06.36-.08.4-.1.35-.11.39-.14.33-.14.37-.18.31-.17.35-.26.3-.2.33-.24.27-.22.3-.27.25-.24.28-.3.23-.26.25-.33.2-.28.22-.36.17-.3c.07-.13.13-.26.19-.38s.1-.2.14-.31.1-.27.15-.41.08-.21.11-.31.08-.3.12-.45.05-.2.08-.3.06-.35.08-.52 0-.17 0-.26c0-.27 0-.53 0-.81s0-.53 0-.79c0-.08 0-.16 0-.25s0-.35-.08-.52 0-.19-.07-.29-.07-.3-.11-.45-.07-.21-.11-.31-.09-.27-.14-.41-.16-.23-.16-.32-.11-.26-.18-.39l-.16-.28c-.07-.12-.14-.25-.22-.37l-.19-.27c-.08-.11-.15-.23-.24-.33l-.22-.27-.26-.3-.25-.24-.28-.28-.28-.18-.31-.24-.3-.2-.11-.14a4.68 4.68 0 0 1 -3.76 3.41z"/></g></svg>