<svg xmlns="http://www.w3.org/2000/svg" viewBox="0 0 328.5 328.5"><title>Asset 2</title><g id="Layer_2" data-name="Layer 2"><g id="Layer_1-2" data-name="Layer 1"><circle cx="164.3" cy="164.3" r="164.3"/><path d="M137.3,39.6q7.3-2.1,11-2.1a27.4,27.4,0,0,1,7.3,1l8.4,2.1,6.3,1.6a14.2,14.2,0,0,1,3.7,2.1,33.7,33.7,0,0,1,3.2,2.6,11.4,11.4,0,0,0,3.1,2.1,4.8,4.8,0,0,1,2.1.5A3.6,3.6,0,0,1,184,51a5.5,5.5,0,0,0,1.1,1.6,10.9,10.9,0,0,0,2.6,1.6l3.7,2.1a22.2,22.2,0,0,0,4.2,2.1,11.8,11.8,0,0,0,3.7,1,25,25,0,0,1,4.7,1,23.3,23.3,0,0,0,4.7,1,4.8,4.8,0,0,1,2.1.5,3.8,3.8,0,0,0,1.6.5,1.6,1.6,0,0,1,1.1.5,2.1,2.1,0,0,0,1.6.5h2.6q1.6,0,6.2,4.7c3.1,3.1,4.7,5,4.7,5.7V76a6.3,6.3,0,0,1-1.6,3.1,66.1,66.1,0,0,1-5.7,6.2q-4.1,4.2-7.8,8.3c-2.4,2.8-5.2,6.1-8.3,9.9L195.9,115l-8.3,10.4c-2.4,3.1-5.2,6.4-8.3,9.9a58.3,58.3,0,0,1-6.7,6.8l-3.6,2.6q-1.6,1.1-1.6,1.6v6.1a9.9,9.9,0,0,0,.5,3.1,9.2,9.2,0,0,1,.5,2.1c0,.4.3.9,1,1.6s2.8,1.9,6.5,3.6a86.8,86.8,0,0,0,8.5,3.6l5,1.6a6.4,6.4,0,0,1,2.5,1,35.8,35.8,0,0,1,2.5,4.2,75.5,75.5,0,0,1,3.5,7.3,19.7,19.7,0,0,0,2,4.2c.3.4.3,1,0,2.1l-1.5,4.2A12.3,12.3,0,0,1,197,194a7,7,0,0,1-3,1,35.5,35.5,0,0,1-7,.5,28.4,28.4,0,0,0-8,1c-2.3.7-3.8,1.4-4.5,2.1a7.9,7.9,0,0,1-2,1.6c-.7.4-1,.7-1,1v3.1a13.7,13.7,0,0,0,.5,4.2,12.2,12.2,0,0,1,.5,3.6c0,1.4.2,2.3.5,2.6a13.7,13.7,0,0,1,1.5,3.6h19.6a163,163,0,0,1,21.9,1.6,120.8,120.8,0,0,1,18.2,3.6l8.3,2.6,4.2,1.6a11.9,11.9,0,0,0,4.2,1,10,10,0,0,1,3.1.5,23.8,23.8,0,0,1,4.2,2.1,17.3,17.3,0,0,0,4.7,2.1,18.3,18.3,0,0,1,4.7,2.1l3.7,2.1a5.8,5.8,0,0,1,2.1,2.6,32.9,32.9,0,0,1,1.6,3.6l1,3.1a10,10,0,0,1,.5,3.1v4.2a4.1,4.1,0,0,1-1.6,3.6q-1.6,1-6.3,1.6a114.1,114.1,0,0,1-12,.5c-2.8-2.1-5.2-4-7.3-5.7s-3.3-2.6-3.7-2.6a13.9,13.9,0,0,0-3.1,1l-5.2,2.1a29.3,29.3,0,0,1-6.8,1.6c-2.8.3-4.5.2-5.2-.5s-1-1.2-1-1.6a7.9,7.9,0,0,1,.5-2.1,12.7,12.7,0,0,1,1.6-3.1,79.5,79.5,0,0,0,4.2-8.8q-14.6-3.1-22.4-5.2a71.7,71.7,0,0,0-18.2-2.1q-10.4,0-12,1.6l-2.1,2.1a11.6,11.6,0,0,0-1.6,2.6,2.1,2.1,0,0,1-.5,1.6,1.5,1.5,0,0,0-.5,1,1.5,1.5,0,0,1-.5,1q-.5.5-1.6,0l-3.6-2.1-5.7-3.1a19.4,19.4,0,0,1-3.6-2.1q-.5-.5-1.6,0a3.9,3.9,0,0,1-1.6.5l-2.6.5a14.9,14.9,0,0,1-3.7.5,10,10,0,0,0-3.1.5l-4.2,1a19.4,19.4,0,0,0-4.7,1.6,20,20,0,0,1-4.2,1.6l-5.7,1.6-6.3,1.6-8.3,1.6a124.8,124.8,0,0,0-14.1,3.6c-5.6,1.7-8.9,3.1-9.9,4.2a34.5,34.5,0,0,1-3.7,3.1,7.8,7.8,0,0,1-2.6,1.6,34.1,34.1,0,0,1-5.2-2.1l-9.9-4.2a34.7,34.7,0,0,1-7.3-3.6c-1.4-1-2.1-2.1-2.1-3.1v-3a2.1,2.1,0,0,1,1.1-2.1c.7-.3,2.8-.7,6.3-1l8.4-1,6.8-1a44,44,0,0,1,5.2-.5,9.7,9.7,0,0,0,3.2-.5l4.2-1a23.1,23.1,0,0,1,4.2-.5,21.9,21.9,0,0,0,4.2-.5l8.9-2.1a99.9,99.9,0,0,0,10.5-3.1,66.1,66.1,0,0,1,6.3-2.1,6.4,6.4,0,0,0,2.6-1,16.2,16.2,0,0,0,1.6-2.1l2.6-4.2c1.1-1.7,1.4-2.8,1.1-3.1a46.8,46.8,0,0,0-5.8-3.1l-11-5.7a39.1,39.1,0,0,1-8.9-6.2c-2.1-2.1-3.2-3.8-3.2-5.2a30.2,30.2,0,0,1,1.6-7.3,16.6,16.6,0,0,1,6.8-8.8q5.2-3.6,16.8-6.8l16.8-4.7,6.8-2.1c1.1-.3,1.7-1.4,2.1-3.1s.7-3.3,1.1-4.7.3-2.2,0-2.6a15.1,15.1,0,0,0-4.2-1.6l-5.2-1.6-4.2-1.6a22.2,22.2,0,0,1-4.2-2.1l-3.7-2.1-4.7-2.6a24.1,24.1,0,0,0-4.2-2.1,12.9,12.9,0,0,1-3.2-1.6,58.6,58.6,0,0,1-4.7-3.6c-2.1-1.7-4.7-4.2-7.9-7.3l-11-10.9q-6.3-6.2-6.8-7.3a33.1,33.1,0,0,1-1.6-4.2l-2.6-7.8c-1.1-3.1-1.4-4.8-1.1-5.2s1.7.4,4.2,2.1a49.3,49.3,0,0,1,4.7,3.6,44,44,0,0,0,3.7,3.1l4.7,3.6a34.8,34.8,0,0,1,3.7,3.1,31.5,31.5,0,0,0,4.7,3.6,46.9,46.9,0,0,0,5.3,3.1l5.2,3.1a82.2,82.2,0,0,1,6.8-4.7q2.6-1.6,12.1-9.4t11.6-10.4a57.6,57.6,0,0,1,4.2-4.7A10.4,10.4,0,0,0,162,88q.5-1.6.5-10.4V53.1l-4.2-4.2a3.1,3.1,0,0,0-2.1-1l-7.9.5-11,1L132,50a3,3,0,0,1-2.1-1,11.8,11.8,0,0,0-4.2-2.1c-2.1-.7-2.6-1.6-1.6-2.6S129.6,41.6,137.3,39.6ZM157,180.2q-1-3.1-3.1-3.1a30.2,30.2,0,0,0-7.3,1.6l-11.5,3.1a35.1,35.1,0,0,0-8.8,3.1,17.6,17.6,0,0,0-4.7,4.2l-4.7,5.7c-1.7,2.1-2.8,3-3.1,2.6s2.8,1,9.4,4.2,11.6,5.4,15.1,6.8l3.1-1.6a5.6,5.6,0,0,0,2.1-2.6,31.9,31.9,0,0,1,2.1-3.6,35.9,35.9,0,0,0,2.1-3.6c.7-1.4,1.6-2.9,2.6-4.7a20.5,20.5,0,0,1,2.6-3.6,17.5,17.5,0,0,0,2.1-2.6,14,14,0,0,0,1.6-3.1A8.7,8.7,0,0,0,157,180.2Z" style="fill:#fff;stroke:#fff;stroke-miterlimit:10;stroke-width:0.75px"/></g></g></svg>